<svg width="270" height="270" viewBox="0 0 270 270" fill="none" xmlns="http://www.w3.org/2000/svg">
<path d="M118.987 97.9221C126.111 85.1407 129.674 78.75 135 78.75C140.326 78.75 143.889 85.1407 151.013 97.9221L152.857 101.229C154.881 104.861 155.894 106.677 157.472 107.875C159.051 109.073 161.016 109.518 164.948 110.408L168.528 111.218C182.363 114.348 189.281 115.913 190.927 121.206C192.573 126.499 187.857 132.014 178.424 143.043L175.984 145.897C173.304 149.031 171.964 150.598 171.361 152.537C170.758 154.476 170.96 156.567 171.366 160.749L171.735 164.556C173.161 179.272 173.874 186.63 169.565 189.901C165.256 193.172 158.779 190.19 145.824 184.225L142.473 182.682C138.792 180.987 136.951 180.14 135 180.14C133.049 180.14 131.208 180.987 127.527 182.682L124.176 184.225C111.221 190.19 104.744 193.172 100.435 189.901C96.1263 186.63 96.8393 179.272 98.2654 164.556L98.6343 160.749C99.0395 156.567 99.2421 154.476 98.6392 152.537C98.0363 150.598 96.6961 149.031 94.0158 145.897L91.5755 143.043C82.1433 132.014 77.4271 126.499 79.073 121.206C80.7188 115.913 87.6367 114.348 101.472 111.218L105.052 110.408C108.984 109.518 110.949 109.073 112.528 107.875C114.106 106.677 115.119 104.861 117.143 101.229L118.987 97.9221Z" stroke="#6F58F6" stroke-width="14"/>
<path opacity="0.5" d="M135 22.5V45" stroke="#6F58F6" stroke-width="14" stroke-linecap="round"/>
<path opacity="0.5" d="M135 225V247.5" stroke="#6F58F6" stroke-width="14" stroke-linecap="round"/>
<path opacity="0.5" d="M22.5 135L45 135" stroke="#6F58F6" stroke-width="14" stroke-linecap="round"/>
<path opacity="0.5" d="M225 135L247.5 135" stroke="#6F58F6" stroke-width="14" stroke-linecap="round"/>
<path d="M67.501 202.499L71.3603 198.639" stroke="#6F58F6" stroke-width="14" stroke-linecap="round"/>
<path d="M198.64 71.3604L202.501 67.4987" stroke="#6F58F6" stroke-width="14" stroke-linecap="round"/>
<path d="M202.499 202.501L198.639 198.642" stroke="#6F58F6" stroke-width="14" stroke-linecap="round"/>
<path d="M71.3617 71.3617L67.5 67.5" stroke="#6F58F6" stroke-width="14" stroke-linecap="round"/>
</svg>
