<svg width="71" height="70" viewBox="0 0 71 70" fill="none" xmlns="http://www.w3.org/2000/svg">
<path d="M0.85498 34.9268C0.85498 18.4955 0.85498 10.2799 5.95951 5.17539C11.064 0.0708618 19.2797 0.0708618 35.7109 0.0708618C52.1421 0.0708618 60.3577 0.0708618 65.4623 5.17539C70.5668 10.2799 70.5668 18.4955 70.5668 34.9268C70.5668 51.358 70.5668 59.5736 65.4623 64.6782C60.3577 69.7827 52.1421 69.7827 35.7109 69.7827C19.2797 69.7827 11.064 69.7827 5.95951 64.6782C0.85498 59.5736 0.85498 51.358 0.85498 34.9268Z" fill="#6F58F6"/>
<path d="M17.5137 51.9574C14.0142 51.9574 12.2644 51.9574 11.2706 51.0643C10.8278 50.6664 10.4943 50.1616 10.3019 49.5982C9.87017 48.3338 10.5564 46.7242 11.929 43.505L19.8813 24.8537C21.6784 20.6387 22.577 18.5312 24.1171 18.053C24.5999 17.9031 25.1094 17.86 25.6105 17.9266C27.2091 18.1393 28.4489 20.0659 30.9286 23.9191L34.2603 29.0961C35.3506 30.7903 35.8957 31.6374 35.9466 32.5569C35.9632 32.857 35.9409 33.1579 35.8803 33.4523C35.6945 34.3543 35.0305 35.1118 33.7026 36.6269L22.0794 49.888C21.3206 50.7537 20.9413 51.1865 20.4641 51.4696C20.2443 51.6 20.0108 51.7058 19.7679 51.7852C19.2405 51.9574 18.6649 51.9574 17.5137 51.9574Z" fill="white"/>
<path d="M53.9077 51.9574C57.4073 51.9574 59.157 51.9574 60.1508 51.0643C60.5936 50.6664 60.9271 50.1616 61.1195 49.5982C61.5513 48.3338 60.865 46.7242 59.4925 43.505L51.5402 24.8537C49.743 20.6387 48.8445 18.5312 47.3043 18.053C46.8216 17.9031 46.312 17.86 45.811 17.9266C44.2123 18.1393 42.9725 20.0659 40.4928 23.9191L37.1612 29.0961C36.0709 30.7903 35.5257 31.6374 35.4749 32.5569C35.4583 32.857 35.4806 33.1579 35.5412 33.4523C35.7269 34.3543 36.3909 35.1118 37.7189 36.6269L49.342 49.888C50.1008 50.7537 50.4802 51.1865 50.9573 51.4696C51.1771 51.6 51.4106 51.7058 51.6536 51.7852C52.181 51.9574 52.7565 51.9574 53.9077 51.9574Z" fill="white"/>
</svg>
